inDegrees=yes
name=ik_lifting_orientations
DataType=double
version=3
OpenSimVersion=4.5-2024-01-10-34fd6af
endheader
time	pelvis_tilt	pelvis_list	pelvis_rotation	pelvis_tx	pelvis_ty	pelvis_tz	hip_flexion_r	hip_adduction_r	hip_rotation_r	knee_angle_r	knee_angle_r_beta	ankle_angle_r	subtalar_angle_r	mtp_angle_r	hip_flexion_l	hip_adduction_l	hip_rotation_l	knee_angle_l	knee_angle_l_beta	ankle_angle_l	subtalar_angle_l	mtp_angle_l	lumbar_extension	lumbar_bending	lumbar_rotation	arm_flex_r	arm_add_r	arm_rot_r	elbow_flex_r	pro_sup_r	wrist_flex_r	wrist_dev_r	arm_flex_l	arm_add_l	arm_rot_l	elbow_flex_l	pro_sup_l	wrist_flex_l	wrist_dev_l
0.02	0.001201813809469145	-0.001371173428287333	-91.68947335943301	0	0.9399999998679526	0	46.41159741464584	-9.484768648128947	0	60.69554361516927	1.059337077372526	-4.510670973186587	0	0	46.41159741464584	-9.484768648128947	0	60.69554361516927	1.059337077372526	-4.510670973186587	0	0	-0.001813181595369528	-0.000435168558693794	0.0009153477229275177	-0.2352137993933907	-0.05506187299177905	-0.005845011046703709	0.4918757960705825	0.9816708431747607	0	0	0	-11.81768751376555	0	89.12595687673344	0.9816708431747607	0	0
0.03	-0.1136328060694956	0.5615992909935356	-92.01478924471266	0	0.9399999998679526	0	46.4112515502514	-9.485195270483125	0	60.69540638784407	1.059334682303877	-4.511196099909287	0	0	46.4112515502514	-9.485195270483125	0	60.69540638784407	1.059334682303877	-4.511196099909287	0	0	1.280664254339581	0.31237184114247	0.1716259810101415	-0.8656198121120036	-0.1805995135899535	0.2055439726370219	0.4159560701572442	0.9815018249575675	0	0	0	-11.81809440761451	0	89.12610733226913	0.9815018249575675	0	0
0.04	0.07587648316229927	1.111626822275208	-91.85321583906828	0	0.9399999998679526	0	46.4109251444012	-9.485600209335766	0	60.69527756757508	1.05933243396604	-4.511694959359238	0	0	46.4109251444012	-9.485600209335766	0	60.69527756757508	1.05933243396604	-4.511694959359238	0	0	2.396305705418887	0.2672850900346594	-0.2917375069932182	-1.333917757005825	-0.1777385231658948	0.6433722872217913	0.3479334947441285	0.9813426334425306	0	0	0	-11.8184769875166	0	89.12624904030001	0.9813426334425306	0	0
0.05	0.2717849124612549	1.178730740732805	-91.72477960318174	0	0.9399999998679526	0	46.41057896809406	-9.486037002691715	0	60.69514274549807	1.059330080876892	-4.512234841042472	0	0	46.41057896809406	-9.486037002691715	0	60.69514274549807	1.059330080876892	-4.512234841042472	0	0	3.020651697393359	0.1584352170291799	-0.7250803374789109	-1.793559316380734	-0.1590967241066123	1.186923976415155	0.3040725759796884	0.9811746653753327	0	0	0	-11.81887892444129	0	89.12639856088795	0.9811746653753327	0	0
0.06	0.5565487004760997	-0.7197315961570302	-91.18273056334922	0	0.9399999998679526	0	46.41013110055452	-9.486601315374694	0	60.69496817871788	1.059327034111813	-4.512932074958243	0	0	46.41013110055452	-9.486601315374694	0	60.69496817871788	1.059327034111813	-4.512932074958243	0	0	1.864209491673232	0.001534580261954441	-1.52782287028651	-2.529290231016499	-0.3016367087321534	1.497961368561336	0.293827173742952	0.9809572767306871	0	0	0	-11.81939927751435	0	89.1265920743344	0.9809572767306871	0	0
0.07000000000000001	0.7578509755338483	-2.533845996859553	-90.68188024469332	0	0.9399999998679526	0	46.40971393371417	-9.487125859487866	0	60.69480539434084	1.059324192988463	-4.513579805034122	0	0	46.40971393371417	-9.487125859487866	0	60.69480539434084	1.059324192988463	-4.513579805034122	0	0	0.6622794296225937	-0.07169679867608431	-1.991682784602904	-3.13142975973924	-0.4071025716177204	1.514755493969587	0.2876320008219169	0.9807546875105981	0	0	0	-11.81988440224855	0	89.12677241374834	0.9807546875105981	0	0
0.08	1.006622867342983	-4.302072109772219	-90.17854486912323	0	0.9399999998679526	0	46.40929371929176	-9.487649882458781	0	60.69464040336037	1.059321313352618	-4.514225778801966	0	0	46.40929371929176	-9.487649882458781	0	60.69464040336037	1.059321313352618	-4.514225778801966	0	0	-0.7913638182904579	-0.2858597812685447	-2.728922000006304	-3.543662815126854	-0.4682996453021785	1.716814462904894	0.3281414006786063	0.9805501160700166	0	0	0	-11.82037528282127	0	89.12695451773745	0.9805501160700166	0	0
0.09	1.285228567124351	-5.995000675067702	-89.54515236264285	0	0.9399999998679526	0	46.40882920948675	-9.488231152812659	0	60.69445862947114	1.059318140799757	-4.514942661324179	0	0	46.40882920948675	-9.488231152812659	0	60.69445862947114	1.059318140799757	-4.514942661324179	0	0	-2.243944075735552	-0.4982645838649659	-3.520107127493546	-3.796754587618995	-0.4728509397107949	1.795370016365723	0.328831851281697	0.9803242575329553	0	0	0	-11.82091666941812	0	89.12715557089663	0.9803242575329553	0	0
0.1	1.897037239769663	-8.049238015838812	-89.83305721973775	0	0.9399999998679526	0	46.40818271985575	-9.489046456028452	0	60.69420739536574	1.059313755937424	-4.515949435539697	0	0	46.40818271985575	-9.489046456028452	0	60.69420739536574	1.059313755937424	-4.515949435539697	0	0	-3.882045882861337	-0.9631771539506288	-3.329993047638807	-4.216677488784307	-0.6248885340611623	1.838366565576749	0.3363682588004716	0.9800107319066033	0	0	0	-11.82166652184093	0	89.12743466283756	0.9800107319066033	0	0
0.11	2.403346748291948	-9.970334772832159	-89.88637174904225	0	0.9399999998679526	0	46.40769252686432	-9.489660954155573	0	60.69401610955364	1.05931041737019	-4.516707209293545	0	0	46.40769252686432	-9.489660954155573	0	60.69401610955364	1.05931041737019	-4.516707209293545	0	0	-5.382814238467593	-1.264292288198362	-3.139618867268279	-4.681090124390937	-0.786807671118112	1.747689036272682	0.3225442246520394	0.9797726031011432	0	0	0	-11.8222368472659	0	89.12764663863524	0.9797726031011432	0	0
0.12	2.60956686145753	-11.92270505204144	-89.53892472594596	0	0.9399999998679526	0	46.40723027150705	-9.490238954835927	0	60.6938354716187	1.059307264643472	-4.517419481863302	0	0	46.40723027150705	-9.490238954835927	0	60.6938354716187	1.059307264643472	-4.517419481863302	0	0	-7.127738178013982	-1.145381980608617	-3.358850963989537	-4.877087765441907	-0.9733919207323238	1.694533174592672	0.3082713556569057	0.9795479060505758	0	0	0	-11.82277527154849	0	89.12784665786545	0.9795479060505758	0	0
